<svg preserveAspectRatio="none" overflow="visible" style="display: block;" width="764.448" height="135.52" viewBox="0 0 764.448 135.52" fill="none" xmlns="http://www.w3.org/2000/svg">
<g id="From fine luxurious venues to your regular regional spots, we know hospitality and we are long standing friends of the industry.">
<path id="Vector" d="M736.763 122.76H741.803V127.64H736.763V122.76Z" fill="white"/>
<path id="Vector_2" d="M720.443 135.52C719.243 135.52 718.083 135.16 717.403 134.56L718.443 130.12C719.403 131 720.523 131.52 721.923 131.52C723.723 131.52 725.123 130.68 726.163 128.48L726.803 127.08L719.283 108.92L716.483 107.4V106.88H727.283V107.4L724.483 108.8L729.283 121.68L734.003 108.8L731.203 107.4V106.88H738.563V107.4L735.643 108.92L727.083 129.28C725.043 134.16 722.803 135.52 720.443 135.52Z" fill="white"/>
<path id="Vector_3" d="M701.27 127.64V127.12L704.07 125.68V110.16L701.27 109.2V108.68L708.71 106.48V112.76C709.51 108.92 711.31 106.48 714.47 106.48C714.95 106.48 715.51 106.52 716.03 106.68L715.349 111.24C711.789 109.56 709.39 112.08 708.71 114.76V125.64L712.549 127.12V127.64H701.27Z" fill="white"/>
<path id="Vector_4" d="M696.032 128.04C692.952 128.04 690.392 126.6 690.392 122.4V108.36H687.072V107.84C690.352 107.12 693.192 105.2 694.512 101.6H695.072V106.88L699.752 106.24L700.072 108.36H695.072V123.04C695.072 125.24 696.272 126.12 697.872 126.12C698.672 126.12 699.552 125.92 700.112 125.52L700.392 125.96C699.472 127.04 698.112 128.04 696.032 128.04Z" fill="white"/>
<path id="Vector_5" d="M678.191 128.04C673.631 128.04 670.631 126.12 669.711 124.72L671.431 120.6L671.951 120.64C672.831 124.48 675.271 127.04 678.191 127.04C680.471 127.04 682.031 125.52 682.031 123.32C682.031 121.44 680.991 120.04 678.671 119.24L675.671 118.24C673.191 117.44 670.471 115.92 670.471 112.32C670.471 108.84 673.591 106.48 677.831 106.48C680.671 106.48 683.511 107.64 685.071 109.2L683.791 112.92L683.271 112.88C682.631 109.6 680.431 107.48 677.831 107.48C675.791 107.48 674.311 108.72 674.311 110.6C674.311 112.2 675.231 113.2 677.511 114L680.631 115C683.671 116 686.311 117.68 686.311 121.52C686.311 125.12 682.951 128.04 678.191 128.04Z" fill="white"/>
<path id="Vector_6" d="M654.639 128.04C650.839 128.04 648.279 125.44 648.279 121.08V110.16L645.479 109.2V108.68L652.919 106.48V121.12C652.919 123.92 654.359 125.12 656.399 125.12C658.559 125.12 660.559 123.44 661.119 120.4V110.2L658.319 109.2V108.68L665.759 106.48V125.68L668.559 127.12V127.64H661.119V122.72C660.119 125.88 657.599 128.04 654.639 128.04Z" fill="white"/>
<path id="Vector_7" d="M630.981 128.04C625.781 128.04 622.141 123.84 622.141 117.24C622.141 110.84 626.541 106.48 632.741 106.48C634.421 106.48 635.901 106.84 637.501 108.16V101.68L634.701 100.72V100.2L642.181 98V125.68L644.981 127.12V127.64H637.501V123.12C636.501 126.12 634.021 128.04 630.981 128.04ZM632.541 125.6C634.821 125.6 636.901 123.96 637.501 121.24V111.12C636.501 108.56 634.941 107.44 632.981 107.44C629.221 107.44 626.981 111.8 626.981 117.24C626.981 122.32 629.101 125.6 632.541 125.6Z" fill="white"/>
<path id="Vector_8" d="M597.754 127.64V127.12L600.554 125.68V110.16L597.754 109.2V108.68L605.194 106.48V111.76C606.194 108.64 608.634 106.48 611.674 106.48C615.474 106.48 618.034 109.08 618.034 113.44V125.68L620.834 127.12V127.64H610.594V127.12L613.394 125.68V113.4C613.394 110.6 611.954 109.36 609.914 109.36C607.754 109.36 605.754 111.08 605.194 114.12V125.68L607.994 127.12V127.64H597.754Z" fill="white"/>
<path id="Vector_9" d="M593.827 125.68L596.627 127.12V127.64H586.387V127.12L589.187 125.68V110.16L586.387 109.2V108.68L593.827 106.48V125.68ZM591.387 104.16C589.787 104.16 588.467 102.88 588.467 101.32C588.467 99.7598 589.787 98.5198 591.387 98.5198C593.027 98.5198 594.387 99.7598 594.387 101.32C594.387 102.88 593.027 104.16 591.387 104.16Z" fill="white"/>
<path id="Vector_10" d="M562.45 116.04C562.45 121.64 565.61 124.88 569.45 124.88C572.57 124.88 574.93 122.68 576.13 119.56L576.65 119.68C575.89 124.64 572.57 128.04 567.81 128.04C561.13 128.04 557.57 122.72 557.57 117.24C557.57 111.8 560.73 106.48 567.25 106.48C572.93 106.48 576.49 110 576.41 115.84H562.45C562.45 115.92 562.45 115.96 562.45 116.04ZM562.49 114.84H571.65C571.45 111.08 570.05 107.48 567.25 107.48C564.37 107.48 562.77 111.12 562.49 114.84Z" fill="white"/>
<path id="Vector_11" d="M533.335 127.64V127.12L536.135 125.68V101.68L533.335 100.72V100.2L540.775 98V111.76C541.775 108.64 544.215 106.48 547.255 106.48C551.015 106.48 553.615 109.08 553.615 113.44V125.68L556.415 127.12V127.64H546.175V127.12L548.975 125.68V113.4C548.975 110.6 547.535 109.36 545.455 109.36C543.335 109.36 541.335 111.08 540.775 114.12V125.68L543.575 127.12V127.64H533.335Z" fill="white"/>
<path id="Vector_12" d="M528.298 128.04C525.218 128.04 522.658 126.6 522.658 122.4V108.36H519.338V107.84C522.618 107.12 525.458 105.2 526.778 101.6H527.338V106.88L532.018 106.24L532.338 108.36H527.338V123.04C527.338 125.24 528.538 126.12 530.138 126.12C530.938 126.12 531.818 125.92 532.378 125.52L532.658 125.96C531.738 127.04 530.378 128.04 528.298 128.04Z" fill="white"/>
<path id="Vector_13" d="M498.698 127.64V127.12L501.498 125.68V108.36H497.938V107.84L501.498 106.92V105C501.498 100.44 505.058 98 509.018 98C510.978 98 512.978 98.64 514.338 99.84L513.018 103.6L512.498 103.52C511.938 100.6 510.578 98.92 509.018 98.92C507.498 98.92 506.138 100.24 506.138 103.16V106.56L511.098 106.24L511.378 108.36H506.138V125.64L509.978 127.12V127.64H498.698Z" fill="white"/>
<path id="Vector_14" d="M486.601 128.04C480.601 128.04 476.281 123.44 476.281 117.24C476.281 111.08 480.601 106.48 486.601 106.48C492.601 106.48 496.961 111.08 496.961 117.24C496.961 123.44 492.601 128.04 486.601 128.04ZM486.601 127.04C489.801 127.04 492.121 122.96 492.121 117.24C492.121 111.48 489.761 107.48 486.601 107.48C483.441 107.48 481.161 111.52 481.161 117.24C481.161 123 483.441 127.04 486.601 127.04Z" fill="white"/>
<path id="Vector_15" d="M458.074 128.04C453.514 128.04 450.514 126.12 449.594 124.72L451.314 120.6L451.834 120.64C452.714 124.48 455.154 127.04 458.074 127.04C460.354 127.04 461.914 125.52 461.914 123.32C461.914 121.44 460.874 120.04 458.554 119.24L455.554 118.24C453.074 117.44 450.354 115.92 450.354 112.32C450.354 108.84 453.474 106.48 457.714 106.48C460.554 106.48 463.394 107.64 464.954 109.2L463.674 112.92L463.154 112.88C462.514 109.6 460.314 107.48 457.714 107.48C455.674 107.48 454.194 108.72 454.194 110.6C454.194 112.2 455.114 113.2 457.394 114L460.514 115C463.554 116 466.194 117.68 466.194 121.52C466.194 125.12 462.834 128.04 458.074 128.04Z" fill="white"/>
<path id="Vector_16" d="M434.458 128.04C429.258 128.04 425.618 123.84 425.618 117.24C425.618 110.84 430.018 106.48 436.218 106.48C437.898 106.48 439.378 106.84 440.978 108.16V101.68L438.178 100.72V100.2L445.658 98V125.68L448.458 127.12V127.64H440.978V123.12C439.978 126.12 437.498 128.04 434.458 128.04ZM436.018 125.6C438.298 125.6 440.378 123.96 440.978 121.24V111.12C439.978 108.56 438.418 107.44 436.458 107.44C432.698 107.44 430.458 111.8 430.458 117.24C430.458 122.32 432.578 125.6 436.018 125.6Z" fill="white"/>
<path id="Vector_17" d="M401.23 127.64V127.12L404.03 125.68V110.16L401.23 109.2V108.68L408.67 106.48V111.76C409.67 108.64 412.11 106.48 415.15 106.48C418.95 106.48 421.51 109.08 421.51 113.44V125.68L424.31 127.12V127.64H414.07V127.12L416.87 125.68V113.4C416.87 110.6 415.43 109.36 413.39 109.36C411.23 109.36 409.23 111.08 408.67 114.12V125.68L411.47 127.12V127.64H401.23Z" fill="white"/>
<path id="Vector_18" d="M385.38 116.04C385.38 121.64 388.54 124.88 392.38 124.88C395.5 124.88 397.86 122.68 399.06 119.56L399.58 119.68C398.82 124.64 395.5 128.04 390.74 128.04C384.06 128.04 380.5 122.72 380.5 117.24C380.5 111.8 383.66 106.48 390.18 106.48C395.86 106.48 399.42 110 399.34 115.84H385.38C385.38 115.92 385.38 115.96 385.38 116.04ZM385.42 114.84H394.58C394.38 111.08 392.98 107.48 390.18 107.48C387.3 107.48 385.7 111.12 385.42 114.84Z" fill="white"/>
<path id="Vector_19" d="M376.327 125.68L379.127 127.12V127.64H368.887V127.12L371.687 125.68V110.16L368.887 109.2V108.68L376.327 106.48V125.68ZM373.887 104.16C372.287 104.16 370.967 102.88 370.967 101.32C370.967 99.7598 372.287 98.5198 373.887 98.5198C375.527 98.5198 376.887 99.7598 376.887 101.32C376.887 102.88 375.527 104.16 373.887 104.16Z" fill="white"/>
<path id="Vector_20" d="M353.301 127.64V127.12L356.101 125.68V110.16L353.301 109.2V108.68L360.741 106.48V112.76C361.541 108.92 363.341 106.48 366.501 106.48C366.981 106.48 367.541 106.52 368.061 106.68L367.381 111.24C363.821 109.56 361.421 112.08 360.741 114.76V125.64L364.581 127.12V127.64H353.301Z" fill="white"/>
<path id="Vector_21" d="M339.831 127.64V127.12L342.631 125.68V108.36H339.071V107.84L342.631 106.92V105C342.631 100.44 346.191 98 350.151 98C352.111 98 354.111 98.64 355.471 99.84L354.151 103.6L353.631 103.52C353.071 100.6 351.711 98.92 350.151 98.92C348.631 98.92 347.271 100.24 347.271 103.16V106.56L352.231 106.24L352.511 108.36H347.271V125.64L351.111 127.12V127.64H339.831Z" fill="white"/>
<path id="Vector_22" d="M320.028 135.52C312.788 135.52 309.548 134.12 309.548 131.24C309.548 129.28 311.068 127.88 313.748 127.48C311.748 126.88 310.588 125.64 310.588 123.64C310.588 121.88 311.588 120.4 313.908 119.16C311.828 117.92 310.588 115.96 310.588 113.52C310.588 109.28 314.188 106.48 319.388 106.48C320.948 106.48 322.348 106.72 323.588 107.2L329.948 106.28L330.228 108.36H325.668C327.268 109.6 328.188 111.36 328.188 113.52C328.188 117.68 324.588 120.48 319.388 120.48C317.588 120.48 315.988 120.16 314.628 119.52C313.828 120.32 313.508 121.04 313.508 121.72C313.508 122.88 314.548 123.36 316.308 123.36H322.908C327.588 123.36 330.668 125.2 330.668 129.32C330.668 133.4 326.868 135.52 320.028 135.52ZM315.348 127.8C314.028 128.2 313.228 129.32 313.228 130.92C313.228 133.2 315.628 134.52 320.028 134.52C324.348 134.52 327.068 133.28 327.068 130.76C327.068 129.04 325.628 127.92 322.908 127.92H317.188C316.548 127.92 315.948 127.88 315.348 127.8ZM319.388 119.48C321.708 119.48 323.308 117.64 323.308 113.52C323.308 110.04 321.708 107.48 319.388 107.48C317.028 107.48 315.468 109.56 315.468 113.52C315.468 116.92 317.028 119.48 319.388 119.48Z" fill="white"/>
<path id="Vector_23" d="M285.723 127.64V127.12L288.523 125.68V110.16L285.723 109.2V108.68L293.163 106.48V111.76C294.163 108.64 296.603 106.48 299.643 106.48C303.443 106.48 306.003 109.08 306.003 113.44V125.68L308.803 127.12V127.64H298.563V127.12L301.363 125.68V113.4C301.363 110.6 299.923 109.36 297.883 109.36C295.723 109.36 293.723 111.08 293.163 114.12V125.68L295.963 127.12V127.64H285.723Z" fill="white"/>
<path id="Vector_24" d="M281.795 125.68L284.595 127.12V127.64H274.355V127.12L277.155 125.68V110.16L274.355 109.2V108.68L281.795 106.48V125.68ZM279.355 104.16C277.755 104.16 276.435 102.88 276.435 101.32C276.435 99.7598 277.755 98.5198 279.355 98.5198C280.995 98.5198 282.355 99.7598 282.355 101.32C282.355 102.88 280.995 104.16 279.355 104.16Z" fill="white"/>
<path id="Vector_25" d="M259.38 128.04C254.18 128.04 250.54 123.84 250.54 117.24C250.54 110.84 254.94 106.48 261.14 106.48C262.82 106.48 264.3 106.84 265.9 108.16V101.68L263.1 100.72V100.2L270.58 98V125.68L273.38 127.12V127.64H265.9V123.12C264.9 126.12 262.42 128.04 259.38 128.04ZM260.94 125.6C263.22 125.6 265.3 123.96 265.9 121.24V111.12C264.9 108.56 263.34 107.44 261.38 107.44C257.62 107.44 255.38 111.8 255.38 117.24C255.38 122.32 257.5 125.6 260.94 125.6Z" fill="white"/>
<path id="Vector_26" d="M226.152 127.64V127.12L228.952 125.68V110.16L226.152 109.2V108.68L233.592 106.48V111.76C234.592 108.64 237.032 106.48 240.072 106.48C243.872 106.48 246.432 109.08 246.432 113.44V125.68L249.232 127.12V127.64H238.992V127.12L241.792 125.68V113.4C241.792 110.6 240.352 109.36 238.312 109.36C236.152 109.36 234.152 111.08 233.592 114.12V125.68L236.392 127.12V127.64H226.152Z" fill="white"/>
<path id="Vector_27" d="M211.38 128.04C207.62 128.04 205.34 125.92 205.34 122.88C205.34 119.48 207.9 117.48 212.74 116.24L218.1 114.88V112.12C218.1 109.12 216.54 107.48 214.3 107.48C212.06 107.48 209.98 109.28 210.54 113.88L205.74 113.08C205.9 109.28 209.38 106.48 214.42 106.48C219.66 106.48 222.74 109.12 222.74 114.08V125.68L225.54 127.12V127.64H218.1V123.52C217.1 125.72 215.14 128.04 211.38 128.04ZM218.1 121.84V115.84L215.22 116.6C211.7 117.68 210.18 119.44 210.18 122.08C210.18 124.08 211.5 125.56 213.58 125.56C215.86 125.56 217.46 124.16 218.1 121.84Z" fill="white"/>
<path id="Vector_28" d="M199.743 128.04C196.663 128.04 194.103 126.6 194.103 122.4V108.36H190.783V107.84C194.063 107.12 196.903 105.2 198.223 101.6H198.783V106.88L203.463 106.24L203.783 108.36H198.783V123.04C198.783 125.24 199.983 126.12 201.583 126.12C202.383 126.12 203.263 125.92 203.823 125.52L204.103 125.96C203.183 127.04 201.823 128.04 199.743 128.04Z" fill="white"/>
<path id="Vector_29" d="M181.902 128.04C177.342 128.04 174.342 126.12 173.422 124.72L175.142 120.6L175.662 120.64C176.542 124.48 178.982 127.04 181.902 127.04C184.182 127.04 185.742 125.52 185.742 123.32C185.742 121.44 184.702 120.04 182.382 119.24L179.382 118.24C176.902 117.44 174.182 115.92 174.182 112.32C174.182 108.84 177.302 106.48 181.542 106.48C184.382 106.48 187.222 107.64 188.782 109.2L187.502 112.92L186.982 112.88C186.342 109.6 184.142 107.48 181.542 107.48C179.502 107.48 178.022 108.72 178.022 110.6C178.022 112.2 178.942 113.2 181.222 114L184.342 115C187.382 116 190.022 117.68 190.022 121.52C190.022 125.12 186.662 128.04 181.902 128.04Z" fill="white"/>
<path id="Vector_30" d="M153.739 135.52C146.499 135.52 143.259 134.12 143.259 131.24C143.259 129.28 144.779 127.88 147.459 127.48C145.459 126.88 144.299 125.64 144.299 123.64C144.299 121.88 145.299 120.4 147.619 119.16C145.539 117.92 144.299 115.96 144.299 113.52C144.299 109.28 147.899 106.48 153.099 106.48C154.659 106.48 156.059 106.72 157.299 107.2L163.659 106.28L163.939 108.36H159.379C160.979 109.6 161.899 111.36 161.899 113.52C161.899 117.68 158.299 120.48 153.099 120.48C151.299 120.48 149.699 120.16 148.339 119.52C147.539 120.32 147.219 121.04 147.219 121.72C147.219 122.88 148.259 123.36 150.019 123.36H156.619C161.299 123.36 164.379 125.2 164.379 129.32C164.379 133.4 160.579 135.52 153.739 135.52ZM149.059 127.8C147.739 128.2 146.939 129.32 146.939 130.92C146.939 133.2 149.339 134.52 153.739 134.52C158.059 134.52 160.779 133.28 160.779 130.76C160.779 129.04 159.339 127.92 156.619 127.92H150.899C150.259 127.92 149.659 127.88 149.059 127.8ZM153.099 119.48C155.419 119.48 157.019 117.64 157.019 113.52C157.019 110.04 155.419 107.48 153.099 107.48C150.739 107.48 149.179 109.56 149.179 113.52C149.179 116.92 150.739 119.48 153.099 119.48Z" fill="white"/>
<path id="Vector_31" d="M119.434 127.64V127.12L122.234 125.68V110.16L119.434 109.2V108.68L126.874 106.48V111.76C127.874 108.64 130.314 106.48 133.354 106.48C137.154 106.48 139.714 109.08 139.714 113.44V125.68L142.514 127.12V127.64H132.274V127.12L135.074 125.68V113.4C135.074 110.6 133.634 109.36 131.594 109.36C129.434 109.36 127.434 111.08 126.874 114.12V125.68L129.674 127.12V127.64H119.434Z" fill="white"/>
<path id="Vector_32" d="M107.421 128.04C101.421 128.04 97.1011 123.44 97.1011 117.24C97.1011 111.08 101.421 106.48 107.421 106.48C113.421 106.48 117.781 111.08 117.781 117.24C117.781 123.44 113.421 128.04 107.421 128.04ZM107.421 127.04C110.621 127.04 112.941 122.96 112.941 117.24C112.941 111.48 110.581 107.48 107.421 107.48C104.261 107.48 101.981 111.52 101.981 117.24C101.981 123 104.261 127.04 107.421 127.04Z" fill="white"/>
<path id="Vector_33" d="M92.9236 125.68L95.7236 127.12V127.64H85.4836V127.12L88.2836 125.68V101.68L85.4836 100.72V100.2L92.9236 98V125.68Z" fill="white"/>
<path id="Vector_34" d="M61.7467 116.04C61.7467 121.64 64.9067 124.88 68.7467 124.88C71.8667 124.88 74.2267 122.68 75.4267 119.56L75.9467 119.68C75.1867 124.64 71.8667 128.04 67.1067 128.04C60.4267 128.04 56.8667 122.72 56.8667 117.24C56.8667 111.8 60.0267 106.48 66.5467 106.48C72.2267 106.48 75.7867 110 75.7067 115.84H61.7467C61.7467 115.92 61.7467 115.96 61.7467 116.04ZM61.7867 114.84H70.9467C70.7467 111.08 69.3467 107.48 66.5467 107.48C63.6667 107.48 62.0667 111.12 61.7867 114.84Z" fill="white"/>
<path id="Vector_35" d="M41.543 127.64V127.12L44.343 125.68V110.16L41.543 109.2V108.68L48.983 106.48V112.76C49.783 108.92 51.583 106.48 54.743 106.48C55.223 106.48 55.783 106.52 56.303 106.68L55.623 111.24C52.063 109.56 49.663 112.08 48.983 114.76V125.64L52.823 127.12V127.64H41.543Z" fill="white"/>
<path id="Vector_36" d="M26.7711 128.04C23.0111 128.04 20.7311 125.92 20.7311 122.88C20.7311 119.48 23.2911 117.48 28.1311 116.24L33.4911 114.88V112.12C33.4911 109.12 31.9311 107.48 29.6911 107.48C27.4511 107.48 25.3711 109.28 25.9311 113.88L21.1311 113.08C21.2911 109.28 24.7711 106.48 29.8111 106.48C35.0511 106.48 38.1311 109.12 38.1311 114.08V125.68L40.9311 127.12V127.64H33.4911V123.52C32.4911 125.72 30.5311 128.04 26.7711 128.04ZM33.4911 121.84V115.84L30.6111 116.6C27.0911 117.68 25.5711 119.44 25.5711 122.08C25.5711 124.08 26.8911 125.56 28.9711 125.56C31.2511 125.56 32.8511 124.16 33.4911 121.84Z" fill="white"/>
<path id="Vector_37" d="M748.641 67.04C748.641 72.64 751.801 75.88 755.641 75.88C758.761 75.88 761.121 73.68 762.321 70.56L762.841 70.68C762.081 75.64 758.761 79.04 754.001 79.04C747.321 79.04 743.761 73.72 743.761 68.24C743.761 62.8 746.921 57.48 753.441 57.48C759.121 57.48 762.681 61 762.601 66.84H748.641C748.641 66.92 748.641 66.96 748.641 67.04ZM748.681 65.84H757.841C757.641 62.08 756.241 58.48 753.441 58.48C750.561 58.48 748.961 62.12 748.681 65.84Z" fill="white"/>
<path id="Vector_38" d="M720.791 78.6399L713.991 59.9199L711.191 58.3999V57.8799H721.791V58.3999L718.951 59.7999L723.431 73.3999L727.351 61.6799L726.711 59.9199L723.911 58.3999V57.8799H734.311V58.3999L731.511 59.7999L735.511 73.0399L739.831 59.7999L737.031 58.3999V57.8799H744.231V58.3999L741.431 59.9199L734.431 78.6399H732.791L728.111 63.9599L722.391 78.6399H720.791Z" fill="white"/>
<path id="Vector_39" d="M690.024 79.04C684.824 79.04 681.184 74.84 681.184 68.24C681.184 61.84 685.584 57.48 691.784 57.48C693.464 57.48 694.944 57.84 696.544 59.16V52.68L693.744 51.72V51.2L701.224 49V76.68L704.024 78.12V78.64H696.544V74.12C695.544 77.12 693.064 79.04 690.024 79.04ZM691.584 76.6C693.864 76.6 695.944 74.96 696.544 72.24V62.12C695.544 59.56 693.984 58.44 692.024 58.44C688.264 58.44 686.024 62.8 686.024 68.24C686.024 73.32 688.144 76.6 691.584 76.6Z" fill="white"/>
<path id="Vector_40" d="M656.797 78.64V78.12L659.597 76.68V61.16L656.797 60.2V59.68L664.237 57.48V62.76C665.237 59.64 667.677 57.48 670.717 57.48C674.517 57.48 677.077 60.08 677.077 64.44V76.68L679.877 78.12V78.64H669.637V78.12L672.437 76.68V64.4C672.437 61.6 670.997 60.36 668.957 60.36C666.797 60.36 664.797 62.08 664.237 65.12V76.68L667.037 78.12V78.64H656.797Z" fill="white"/>
<path id="Vector_41" d="M642.025 79.04C638.265 79.04 635.985 76.92 635.985 73.88C635.985 70.48 638.545 68.48 643.385 67.24L648.745 65.88V63.12C648.745 60.12 647.185 58.48 644.945 58.48C642.705 58.48 640.625 60.28 641.185 64.88L636.385 64.08C636.545 60.28 640.025 57.48 645.065 57.48C650.305 57.48 653.385 60.12 653.385 65.08V76.68L656.185 78.12V78.64H648.745V74.52C647.745 76.72 645.785 79.04 642.025 79.04ZM648.745 72.84V66.84L645.865 67.6C642.345 68.68 640.825 70.44 640.825 73.08C640.825 75.08 642.145 76.56 644.225 76.56C646.505 76.56 648.105 75.16 648.745 72.84Z" fill="white"/>
<path id="Vector_42" d="M610.189 86.5199C608.989 86.5199 607.829 86.1599 607.149 85.5599L608.189 81.1199C609.149 81.9999 610.269 82.5199 611.669 82.5199C613.469 82.5199 614.869 81.6799 615.909 79.4799L616.549 78.0799L609.029 59.9199L606.229 58.3999V57.8799H617.029V58.3999L614.229 59.7999L619.029 72.6799L623.749 59.7999L620.949 58.3999V57.8799H628.309V58.3999L625.389 59.9199L616.829 80.2799C614.789 85.1599 612.549 86.5199 610.189 86.5199Z" fill="white"/>
<path id="Vector_43" d="M601.794 79.0398C598.714 79.0398 596.154 77.5998 596.154 73.3998V59.3599H592.834V58.8399C596.114 58.1199 598.954 56.1999 600.274 52.5999H600.834V57.8798L605.514 57.2399L605.834 59.3599H600.834V74.0398C600.834 76.2398 602.034 77.1199 603.634 77.1199C604.434 77.1199 605.314 76.9199 605.874 76.5199L606.154 76.9599C605.234 78.0399 603.874 79.0398 601.794 79.0398Z" fill="white"/>
<path id="Vector_44" d="M589.667 76.6798L592.467 78.1198V78.6398H582.227V78.1198L585.027 76.6798V61.1598L582.227 60.1998V59.6798L589.667 57.4798V76.6798ZM587.227 55.1598C585.627 55.1598 584.307 53.8798 584.307 52.3198C584.307 50.7598 585.627 49.5198 587.227 49.5198C588.867 49.5198 590.227 50.7598 590.227 52.3198C590.227 53.8798 588.867 55.1598 587.227 55.1598Z" fill="white"/>
<path id="Vector_45" d="M578.334 76.68L581.134 78.12V78.64H570.894V78.12L573.694 76.68V52.68L570.894 51.72V51.2L578.334 49V76.68Z" fill="white"/>
<path id="Vector_46" d="M556.322 79.04C552.562 79.04 550.282 76.92 550.282 73.88C550.282 70.48 552.842 68.48 557.682 67.24L563.042 65.88V63.12C563.042 60.12 561.482 58.48 559.242 58.48C557.002 58.48 554.922 60.28 555.482 64.88L550.682 64.08C550.842 60.28 554.322 57.48 559.362 57.48C564.602 57.48 567.682 60.12 567.682 65.08V76.68L570.482 78.12V78.64H563.042V74.52C562.042 76.72 560.082 79.04 556.322 79.04ZM563.042 72.84V66.84L560.162 67.6C556.642 68.68 555.122 70.44 555.122 73.08C555.122 75.08 556.442 76.56 558.522 76.56C560.802 76.56 562.402 75.16 563.042 72.84Z" fill="white"/>
<path id="Vector_47" d="M544.684 79.0398C541.604 79.0398 539.044 77.5998 539.044 73.3998V59.3599H535.724V58.8399C539.004 58.1199 541.844 56.1999 543.164 52.5999H543.724V57.8798L548.404 57.2399L548.724 59.3599H543.724V74.0398C543.724 76.2398 544.924 77.1199 546.524 77.1199C547.324 77.1199 548.204 76.9199 548.764 76.5199L549.044 76.9599C548.124 78.0399 546.764 79.0398 544.684 79.0398Z" fill="white"/>
<path id="Vector_48" d="M532.557 76.6798L535.357 78.1198V78.6398H525.117V78.1198L527.917 76.6798V61.1598L525.117 60.1998V59.6798L532.557 57.4798V76.6798ZM530.117 55.1598C528.517 55.1598 527.197 53.8798 527.197 52.3198C527.197 50.7598 528.517 49.5198 530.117 49.5198C531.757 49.5198 533.117 50.7598 533.117 52.3198C533.117 53.8798 531.757 55.1598 530.117 55.1598Z" fill="white"/>
<path id="Vector_49" d="M500.538 86.12V85.6L503.338 84.16V61.16L500.538 60.2V59.68L507.978 57.48V62.4C508.978 59.4 511.498 57.48 514.578 57.48C519.738 57.48 523.378 61.68 523.378 68.28C523.378 74.68 518.978 79.04 512.738 79.04C511.098 79.04 509.578 78.64 507.978 77.4V84.16L511.778 85.6V86.12H500.538ZM512.498 78.08C516.258 78.08 518.498 73.72 518.498 68.28C518.498 63.2 516.378 59.92 512.978 59.92C510.698 59.92 508.618 61.56 507.978 64.28V74.4C509.018 76.96 510.578 78.08 512.498 78.08Z" fill="white"/>
<path id="Vector_50" d="M491.257 79.04C486.697 79.04 483.697 77.12 482.777 75.72L484.497 71.6L485.017 71.64C485.897 75.48 488.337 78.04 491.257 78.04C493.537 78.04 495.097 76.52 495.097 74.32C495.097 72.44 494.057 71.04 491.737 70.24L488.737 69.24C486.257 68.44 483.537 66.92 483.537 63.32C483.537 59.84 486.657 57.48 490.897 57.48C493.737 57.48 496.577 58.64 498.137 60.2L496.857 63.92L496.337 63.88C495.697 60.6 493.497 58.48 490.897 58.48C488.857 58.48 487.377 59.72 487.377 61.6C487.377 63.2 488.297 64.2 490.577 65L493.697 66C496.737 67 499.377 68.68 499.377 72.52C499.377 76.12 496.017 79.04 491.257 79.04Z" fill="white"/>
<path id="Vector_51" d="M470.487 79.04C464.487 79.04 460.167 74.44 460.167 68.24C460.167 62.08 464.487 57.48 470.487 57.48C476.487 57.48 480.847 62.08 480.847 68.24C480.847 74.44 476.487 79.04 470.487 79.04ZM470.487 78.04C473.687 78.04 476.007 73.96 476.007 68.24C476.007 62.48 473.647 58.48 470.487 58.48C467.327 58.48 465.047 62.52 465.047 68.24C465.047 74 467.327 78.04 470.487 78.04Z" fill="white"/>
<path id="Vector_52" d="M435.933 78.64V78.12L438.733 76.68V52.68L435.933 51.72V51.2L443.373 49V62.76C444.373 59.64 446.813 57.48 449.853 57.48C453.613 57.48 456.213 60.08 456.213 64.44V76.68L459.013 78.12V78.64H448.773V78.12L451.573 76.68V64.4C451.573 61.6 450.133 60.36 448.053 60.36C445.933 60.36 443.933 62.08 443.373 65.12V76.68L446.173 78.12V78.64H435.933Z" fill="white"/>
<path id="Vector_53" d="M405.322 78.6399L398.522 59.9199L395.722 58.3999V57.8799H406.322V58.3999L403.482 59.7999L407.962 73.3999L411.882 61.6799L411.242 59.9199L408.442 58.3999V57.8799H418.842V58.3999L416.042 59.7999L420.042 73.0399L424.362 59.7999L421.562 58.3999V57.8799H428.762V58.3999L425.962 59.9199L418.962 78.6399H417.322L412.642 63.9599L406.922 78.6399H405.322Z" fill="white"/>
<path id="Vector_54" d="M385.839 79.04C379.839 79.04 375.519 74.44 375.519 68.24C375.519 62.08 379.839 57.48 385.839 57.48C391.839 57.48 396.199 62.08 396.199 68.24C396.199 74.44 391.839 79.04 385.839 79.04ZM385.839 78.04C389.039 78.04 391.359 73.96 391.359 68.24C391.359 62.48 388.999 58.48 385.839 58.48C382.679 58.48 380.399 62.52 380.399 68.24C380.399 74 382.679 78.04 385.839 78.04Z" fill="white"/>
<path id="Vector_55" d="M351.25 78.64V78.12L354.05 76.68V61.16L351.25 60.2V59.68L358.69 57.48V62.76C359.69 59.64 362.13 57.48 365.17 57.48C368.97 57.48 371.53 60.08 371.53 64.44V76.68L374.33 78.12V78.64H364.09V78.12L366.89 76.68V64.4C366.89 61.6 365.45 60.36 363.41 60.36C361.25 60.36 359.25 62.08 358.69 65.12V76.68L361.49 78.12V78.64H351.25Z" fill="white"/>
<path id="Vector_56" d="M341.253 57.88H349.373V58.4L345.853 59.92L340.693 64.24L348.453 76.68L351.413 78.12V78.64H340.453V78.12L343.093 76.8L337.173 67.12L335.013 68.92V76.68L337.813 78.12V78.64H327.573V78.12L330.373 76.68V52.68L327.573 51.72V51.2L335.013 49V67.56L343.693 59.8L341.253 58.4V57.88Z" fill="white"/>
<path id="Vector_57" d="M303.837 67.04C303.837 72.64 306.997 75.88 310.837 75.88C313.957 75.88 316.317 73.68 317.517 70.56L318.037 70.68C317.277 75.64 313.957 79.04 309.197 79.04C302.517 79.04 298.957 73.72 298.957 68.24C298.957 62.8 302.117 57.48 308.637 57.48C314.317 57.48 317.877 61 317.797 66.84H303.837C303.837 66.92 303.837 66.96 303.837 67.04ZM303.877 65.84H313.037C312.837 62.08 311.437 58.48 308.637 58.48C305.757 58.48 304.157 62.12 303.877 65.84Z" fill="white"/>
<path id="Vector_58" d="M275.987 78.6399L269.187 59.9199L266.387 58.3999V57.8799H276.987V58.3999L274.147 59.7999L278.627 73.3999L282.547 61.6799L281.907 59.9199L279.107 58.3999V57.8799H289.507V58.3999L286.707 59.7999L290.707 73.0399L295.027 59.7999L292.227 58.3999V57.8799H299.427V58.3999L296.627 59.9199L289.627 78.6399H287.987L283.307 63.9599L277.587 78.6399H275.987Z" fill="white"/>
<path id="Vector_59" d="M254.005 73.7998H259.045V78.6398L255.125 84.6798H254.605L257.165 78.1998L254.005 78.7198V73.7998Z" fill="white"/>
<path id="Vector_60" d="M243.484 79.04C238.924 79.04 235.924 77.12 235.004 75.72L236.724 71.6L237.244 71.64C238.124 75.48 240.564 78.04 243.484 78.04C245.764 78.04 247.324 76.52 247.324 74.32C247.324 72.44 246.284 71.04 243.964 70.24L240.964 69.24C238.484 68.44 235.764 66.92 235.764 63.32C235.764 59.84 238.884 57.48 243.124 57.48C245.964 57.48 248.804 58.64 250.364 60.2L249.084 63.92L248.564 63.88C247.924 60.6 245.724 58.48 243.124 58.48C241.084 58.48 239.604 59.72 239.604 61.6C239.604 63.2 240.524 64.2 242.804 65L245.924 66C248.964 67 251.604 68.68 251.604 72.52C251.604 76.12 248.244 79.04 243.484 79.04Z" fill="white"/>
<path id="Vector_61" d="M229.606 79.0398C226.526 79.0398 223.966 77.5998 223.966 73.3998V59.3599H220.646V58.8399C223.926 58.1199 226.766 56.1999 228.086 52.5999H228.646V57.8798L233.326 57.2399L233.646 59.3599H228.646V74.0398C228.646 76.2398 229.846 77.1199 231.446 77.1199C232.246 77.1199 233.126 76.9199 233.686 76.5199L233.966 76.9599C233.046 78.0399 231.686 79.0398 229.606 79.0398Z" fill="white"/>
<path id="Vector_62" d="M209.511 79.04C203.511 79.04 199.191 74.44 199.191 68.24C199.191 62.08 203.511 57.48 209.511 57.48C215.511 57.48 219.871 62.08 219.871 68.24C219.871 74.44 215.511 79.04 209.511 79.04ZM209.511 78.04C212.711 78.04 215.031 73.96 215.031 68.24C215.031 62.48 212.671 58.48 209.511 58.48C206.351 58.48 204.071 62.52 204.071 68.24C204.071 74 206.351 78.04 209.511 78.04Z" fill="white"/>
<path id="Vector_63" d="M174.054 86.12V85.6L176.854 84.16V61.16L174.054 60.2V59.68L181.494 57.48V62.4C182.494 59.4 185.014 57.48 188.094 57.48C193.254 57.48 196.894 61.68 196.894 68.28C196.894 74.68 192.494 79.04 186.254 79.04C184.614 79.04 183.094 78.64 181.494 77.4V84.16L185.294 85.6V86.12H174.054ZM186.014 78.08C189.774 78.08 192.014 73.72 192.014 68.28C192.014 63.2 189.894 59.92 186.494 59.92C184.214 59.92 182.134 61.56 181.494 64.28V74.4C182.534 76.96 184.094 78.08 186.014 78.08Z" fill="white"/>
<path id="Vector_64" d="M164.773 79.04C160.213 79.04 157.213 77.12 156.293 75.72L158.013 71.6L158.533 71.64C159.413 75.48 161.853 78.04 164.773 78.04C167.053 78.04 168.613 76.52 168.613 74.32C168.613 72.44 167.573 71.04 165.253 70.24L162.253 69.24C159.773 68.44 157.053 66.92 157.053 63.32C157.053 59.84 160.173 57.48 164.413 57.48C167.253 57.48 170.093 58.64 171.653 60.2L170.373 63.92L169.853 63.88C169.213 60.6 167.013 58.48 164.413 58.48C162.373 58.48 160.893 59.72 160.893 61.6C160.893 63.2 161.813 64.2 164.093 65L167.213 66C170.253 67 172.893 68.68 172.893 72.52C172.893 76.12 169.533 79.04 164.773 79.04Z" fill="white"/>
<path id="Vector_65" d="M144.154 76.68L146.954 78.12V78.64H136.714V78.12L139.514 76.68V52.68L136.714 51.72V51.2L144.154 49V76.68Z" fill="white"/>
<path id="Vector_66" d="M122.142 79.04C118.382 79.04 116.102 76.92 116.102 73.88C116.102 70.48 118.662 68.48 123.502 67.24L128.862 65.88V63.12C128.862 60.12 127.302 58.48 125.062 58.48C122.822 58.48 120.742 60.28 121.302 64.88L116.502 64.08C116.662 60.28 120.142 57.48 125.182 57.48C130.422 57.48 133.502 60.12 133.502 65.08V76.68L136.302 78.12V78.64H128.862V74.52C127.862 76.72 125.902 79.04 122.142 79.04ZM128.862 72.84V66.84L125.982 67.6C122.462 68.68 120.942 70.44 120.942 73.08C120.942 75.08 122.262 76.56 124.342 76.56C126.622 76.56 128.222 75.16 128.862 72.84Z" fill="white"/>
<path id="Vector_67" d="M91.7969 78.64V78.12L94.5969 76.68V61.16L91.7969 60.2V59.68L99.2369 57.48V62.76C100.237 59.64 102.677 57.48 105.717 57.48C109.517 57.48 112.077 60.08 112.077 64.44V76.68L114.877 78.12V78.64H104.637V78.12L107.437 76.68V64.4C107.437 61.6 105.997 60.36 103.957 60.36C101.797 60.36 99.7969 62.08 99.2369 65.12V76.68L102.037 78.12V78.64H91.7969Z" fill="white"/>
<path id="Vector_68" d="M79.7844 79.04C73.7844 79.04 69.4644 74.44 69.4644 68.24C69.4644 62.08 73.7844 57.48 79.7844 57.48C85.7844 57.48 90.1444 62.08 90.1444 68.24C90.1444 74.44 85.7844 79.04 79.7844 79.04ZM79.7844 78.04C82.9844 78.04 85.3044 73.96 85.3044 68.24C85.3044 62.48 82.9444 58.48 79.7844 58.48C76.6244 58.48 74.3444 62.52 74.3444 68.24C74.3444 74 76.6244 78.04 79.7844 78.04Z" fill="white"/>
<path id="Vector_69" d="M65.2916 76.6798L68.0916 78.1198V78.6398H57.8516V78.1198L60.6516 76.6798V61.1598L57.8516 60.1998V59.6798L65.2916 57.4798V76.6798ZM62.8516 55.1598C61.2516 55.1598 59.9316 53.8798 59.9316 52.3198C59.9316 50.7598 61.2516 49.5198 62.8516 49.5198C64.4916 49.5198 65.8516 50.7598 65.8516 52.3198C65.8516 53.8798 64.4916 55.1598 62.8516 55.1598Z" fill="white"/>
<path id="Vector_70" d="M46.4147 86.5198C39.1747 86.5198 35.9347 85.1198 35.9347 82.2398C35.9347 80.2798 37.4547 78.8798 40.1347 78.4798C38.1347 77.8798 36.9747 76.6398 36.9747 74.6398C36.9747 72.8798 37.9747 71.3998 40.2947 70.1598C38.2147 68.9198 36.9747 66.9598 36.9747 64.5198C36.9747 60.2798 40.5747 57.4798 45.7747 57.4798C47.3347 57.4798 48.7347 57.7198 49.9747 58.1998L56.3347 57.2798L56.6147 59.3598H52.0547C53.6547 60.5998 54.5747 62.3598 54.5747 64.5198C54.5747 68.6798 50.9747 71.4798 45.7747 71.4798C43.9747 71.4798 42.3747 71.1598 41.0147 70.5198C40.2147 71.3198 39.8947 72.0398 39.8947 72.7198C39.8947 73.8798 40.9347 74.3598 42.6947 74.3598H49.2947C53.9747 74.3598 57.0547 76.1998 57.0547 80.3198C57.0547 84.3998 53.2547 86.5198 46.4147 86.5198ZM41.7347 78.7998C40.4147 79.1998 39.6147 80.3198 39.6147 81.9198C39.6147 84.1998 42.0147 85.5198 46.4147 85.5198C50.7347 85.5198 53.4547 84.2798 53.4547 81.7598C53.4547 80.0398 52.0147 78.9198 49.2947 78.9198H43.5747C42.9347 78.9198 42.3347 78.8798 41.7347 78.7998ZM45.7747 70.4798C48.0947 70.4798 49.6947 68.6398 49.6947 64.5198C49.6947 61.0398 48.0947 58.4798 45.7747 58.4798C43.4147 58.4798 41.8547 60.5598 41.8547 64.5198C41.8547 67.9198 43.4147 70.4798 45.7747 70.4798Z" fill="white"/>
<path id="Vector_71" d="M20.2037 67.04C20.2037 72.64 23.3637 75.88 27.2037 75.88C30.3237 75.88 32.6837 73.68 33.8837 70.56L34.4037 70.68C33.6437 75.64 30.3237 79.04 25.5637 79.04C18.8837 79.04 15.3237 73.72 15.3237 68.24C15.3237 62.8 18.4837 57.48 25.0037 57.48C30.6837 57.48 34.2437 61 34.1637 66.84H20.2037C20.2037 66.92 20.2037 66.96 20.2037 67.04ZM20.2437 65.84H29.4037C29.2037 62.08 27.8037 58.48 25.0037 58.48C22.1237 58.48 20.5237 62.12 20.2437 65.84Z" fill="white"/>
<path id="Vector_72" d="M0 78.64V78.12L2.8 76.68V61.16L0 60.2V59.68L7.44 57.48V63.76C8.24 59.92 10.04 57.48 13.2 57.48C13.68 57.48 14.24 57.52 14.76 57.68L14.08 62.24C10.52 60.56 8.12 63.08 7.44 65.76V76.64L11.28 78.12V78.64H0Z" fill="white"/>
<path id="Vector_73" d="M749.688 29.64V29.12L752.487 27.68V12.16L749.688 11.2V10.68L757.128 8.47998V14.76C757.928 10.92 759.728 8.47998 762.888 8.47998C763.368 8.47998 763.928 8.51999 764.448 8.67999L763.767 13.24C760.207 11.56 757.808 14.08 757.128 16.76V27.64L760.967 29.12V29.64H749.688Z" fill="white"/>
<path id="Vector_74" d="M734.916 30.04C731.156 30.04 728.876 27.92 728.876 24.88C728.876 21.48 731.436 19.48 736.276 18.24L741.636 16.88V14.12C741.636 11.12 740.076 9.47998 737.836 9.47998C735.596 9.47998 733.516 11.28 734.076 15.88L729.276 15.08C729.436 11.28 732.916 8.47998 737.956 8.47998C743.196 8.47998 746.276 11.12 746.276 16.08V27.68L749.076 29.12V29.64H741.636V25.52C740.636 27.72 738.676 30.04 734.916 30.04ZM741.636 23.84V17.84L738.756 18.6C735.236 19.68 733.716 21.44 733.716 24.08C733.716 26.08 735.036 27.56 737.116 27.56C739.396 27.56 740.996 26.16 741.636 23.84Z" fill="white"/>
<path id="Vector_75" d="M724.623 27.68L727.423 29.12V29.64H717.183V29.12L719.983 27.68V3.68L717.183 2.72V2.2L724.623 0V27.68Z" fill="white"/>
<path id="Vector_76" d="M702.471 30.04C698.671 30.04 696.111 27.44 696.111 23.08V12.16L693.311 11.2V10.68L700.751 8.47998V23.12C700.751 25.92 702.191 27.12 704.231 27.12C706.391 27.12 708.391 25.44 708.951 22.4V12.2L706.151 11.2V10.68L713.591 8.47998V27.68L716.391 29.12V29.64H708.951V24.72C707.951 27.88 705.431 30.04 702.471 30.04Z" fill="white"/>
<path id="Vector_77" d="M682.274 37.5198C675.034 37.5198 671.794 36.1198 671.794 33.2398C671.794 31.2798 673.314 29.8798 675.994 29.4798C673.994 28.8798 672.834 27.6398 672.834 25.6398C672.834 23.8798 673.834 22.3998 676.154 21.1598C674.074 19.9198 672.834 17.9598 672.834 15.5198C672.834 11.2798 676.434 8.47978 681.634 8.47978C683.194 8.47978 684.594 8.71978 685.834 9.19978L692.194 8.27979L692.474 10.3598H687.914C689.514 11.5998 690.434 13.3598 690.434 15.5198C690.434 19.6798 686.834 22.4798 681.634 22.4798C679.834 22.4798 678.234 22.1598 676.874 21.5198C676.074 22.3198 675.754 23.0398 675.754 23.7198C675.754 24.8798 676.794 25.3598 678.554 25.3598H685.154C689.834 25.3598 692.914 27.1998 692.914 31.3198C692.914 35.3998 689.114 37.5198 682.274 37.5198ZM677.594 29.7998C676.274 30.1998 675.474 31.3198 675.474 32.9198C675.474 35.1998 677.874 36.5198 682.274 36.5198C686.594 36.5198 689.314 35.2798 689.314 32.7598C689.314 31.0398 687.874 29.9198 685.154 29.9198H679.434C678.794 29.9198 678.194 29.8798 677.594 29.7998ZM681.634 21.4798C683.954 21.4798 685.554 19.6398 685.554 15.5198C685.554 12.0398 683.954 9.47978 681.634 9.47978C679.274 9.47978 677.714 11.5598 677.714 15.5198C677.714 18.9198 679.274 21.4798 681.634 21.4798Z" fill="white"/>
<path id="Vector_78" d="M656.063 18.04C656.063 23.64 659.223 26.88 663.063 26.88C666.183 26.88 668.543 24.68 669.743 21.56L670.263 21.68C669.503 26.64 666.183 30.04 661.423 30.04C654.743 30.04 651.183 24.72 651.183 19.24C651.183 13.8 654.343 8.47998 660.863 8.47998C666.543 8.47998 670.103 12 670.023 17.84H656.063C656.063 17.92 656.063 17.96 656.063 18.04ZM656.103 16.84H665.263C665.063 13.08 663.663 9.47998 660.863 9.47998C657.983 9.47998 656.383 13.12 656.103 16.84Z" fill="white"/>
<path id="Vector_79" d="M635.859 29.64V29.12L638.659 27.68V12.16L635.859 11.2V10.68L643.299 8.47998V14.76C644.099 10.92 645.899 8.47998 649.059 8.47998C649.539 8.47998 650.099 8.51999 650.619 8.67999L649.939 13.24C646.379 11.56 643.979 14.08 643.299 16.76V27.64L647.139 29.12V29.64H635.859Z" fill="white"/>
<path id="Vector_80" d="M613.125 29.64V29.12L615.925 27.68V12.16L613.125 11.2V10.68L620.565 8.47998V14.76C621.365 10.92 623.165 8.47998 626.325 8.47998C626.805 8.47998 627.365 8.51999 627.885 8.67999L627.205 13.24C623.645 11.56 621.245 14.08 620.565 16.76V27.64L624.405 29.12V29.64H613.125Z" fill="white"/>
<path id="Vector_81" d="M598.213 30.04C594.413 30.04 591.853 27.44 591.853 23.08V12.16L589.053 11.2V10.68L596.493 8.47998V23.12C596.493 25.92 597.933 27.12 599.973 27.12C602.133 27.12 604.133 25.44 604.693 22.4V12.2L601.893 11.2V10.68L609.333 8.47998V27.68L612.133 29.12V29.64H604.693V24.72C603.693 27.88 601.173 30.04 598.213 30.04Z" fill="white"/>
<path id="Vector_82" d="M577.323 30.04C571.323 30.04 567.003 25.44 567.003 19.24C567.003 13.08 571.323 8.47998 577.323 8.47998C583.323 8.47998 587.683 13.08 587.683 19.24C587.683 25.44 583.323 30.04 577.323 30.04ZM577.323 29.04C580.523 29.04 582.843 24.96 582.843 19.24C582.843 13.48 580.483 9.47998 577.323 9.47998C574.163 9.47998 571.883 13.52 571.883 19.24C571.883 25 574.163 29.04 577.323 29.04Z" fill="white"/>
<path id="Vector_83" d="M549.447 37.5199C548.247 37.5199 547.087 37.1599 546.407 36.5599L547.447 32.1199C548.407 32.9999 549.527 33.5199 550.927 33.5199C552.727 33.5199 554.127 32.6799 555.167 30.4799L555.807 29.0799L548.287 10.9199L545.487 9.39988V8.87988H556.287V9.39988L553.487 10.7999L558.287 23.6799L563.007 10.7999L560.207 9.39988V8.87988H567.567V9.39988L564.647 10.9199L556.087 31.2799C554.047 36.1599 551.807 37.5199 549.447 37.5199Z" fill="white"/>
<path id="Vector_84" d="M519.159 30.04C513.159 30.04 508.839 25.44 508.839 19.24C508.839 13.08 513.159 8.47998 519.159 8.47998C525.159 8.47998 529.519 13.08 529.519 19.24C529.519 25.44 525.159 30.04 519.159 30.04ZM519.159 29.04C522.359 29.04 524.679 24.96 524.679 19.24C524.679 13.48 522.319 9.47998 519.159 9.47998C515.999 9.47998 513.719 13.52 513.719 19.24C513.719 25 515.999 29.04 519.159 29.04Z" fill="white"/>
<path id="Vector_85" d="M504.137 30.0399C501.057 30.0399 498.497 28.5999 498.497 24.3999V10.3599H495.177V9.83985C498.457 9.11985 501.297 7.19985 502.617 3.59985H503.177V8.87985L507.857 8.23985L508.177 10.3599H503.177V25.0399C503.177 27.2399 504.377 28.1199 505.977 28.1199C506.777 28.1199 507.657 27.9199 508.217 27.5199L508.497 27.9599C507.577 29.0399 506.217 30.0399 504.137 30.0399Z" fill="white"/>
<path id="Vector_86" d="M478.523 30.04C473.963 30.04 470.963 28.12 470.043 26.72L471.763 22.6L472.283 22.64C473.163 26.48 475.603 29.04 478.523 29.04C480.803 29.04 482.363 27.52 482.363 25.32C482.363 23.44 481.323 22.04 479.003 21.24L476.003 20.24C473.523 19.44 470.803 17.92 470.803 14.32C470.803 10.84 473.923 8.47998 478.163 8.47998C481.003 8.47998 483.843 9.63998 485.403 11.2L484.123 14.92L483.603 14.88C482.963 11.6 480.763 9.47998 478.163 9.47998C476.123 9.47998 474.643 10.72 474.643 12.6C474.643 14.2 475.563 15.2 477.843 16L480.963 17C484.003 18 486.643 19.68 486.643 23.52C486.643 27.12 483.283 30.04 478.523 30.04Z" fill="white"/>
<path id="Vector_87" d="M454.032 18.04C454.032 23.64 457.192 26.88 461.032 26.88C464.152 26.88 466.512 24.68 467.712 21.56L468.232 21.68C467.472 26.64 464.152 30.04 459.392 30.04C452.712 30.04 449.152 24.72 449.152 19.24C449.152 13.8 452.312 8.47998 458.832 8.47998C464.512 8.47998 468.072 12 467.992 17.84H454.032C454.032 17.92 454.032 17.96 454.032 18.04ZM454.072 16.84H463.232C463.032 13.08 461.632 9.47998 458.832 9.47998C455.952 9.47998 454.352 13.12 454.072 16.84Z" fill="white"/>
<path id="Vector_88" d="M433.994 30.04C430.194 30.04 427.634 27.44 427.634 23.08V12.16L424.834 11.2V10.68L432.274 8.47998V23.12C432.274 25.92 433.714 27.12 435.754 27.12C437.914 27.12 439.914 25.44 440.474 22.4V12.2L437.674 11.2V10.68L445.114 8.47998V27.68L447.914 29.12V29.64H440.474V24.72C439.474 27.88 436.954 30.04 433.994 30.04Z" fill="white"/>
<path id="Vector_89" d="M401.445 29.64V29.12L404.245 27.68V12.16L401.445 11.2V10.68L408.885 8.47998V13.76C409.885 10.64 412.325 8.47998 415.365 8.47998C419.165 8.47998 421.725 11.08 421.725 15.44V27.68L424.525 29.12V29.64H414.285V29.12L417.085 27.68V15.4C417.085 12.6 415.645 11.36 413.605 11.36C411.445 11.36 409.445 13.08 408.885 16.12V27.68L411.685 29.12V29.64H401.445Z" fill="white"/>
<path id="Vector_90" d="M385.594 18.04C385.594 23.64 388.754 26.88 392.594 26.88C395.714 26.88 398.074 24.68 399.274 21.56L399.794 21.68C399.034 26.64 395.714 30.04 390.954 30.04C384.274 30.04 380.714 24.72 380.714 19.24C380.714 13.8 383.874 8.47998 390.394 8.47998C396.074 8.47998 399.634 12 399.554 17.84H385.594C385.594 17.92 385.594 17.96 385.594 18.04ZM385.634 16.84H394.794C394.594 13.08 393.194 9.47998 390.394 9.47998C387.514 9.47998 385.914 13.12 385.634 16.84Z" fill="white"/>
<path id="Vector_91" d="M369.272 29.6399L362.352 10.9199L359.552 9.39988V8.87988H370.152V9.39988L367.352 10.7999L372.072 24.5599L376.792 10.7999L373.992 9.39988V8.87988H381.312V9.39988L378.512 10.9199L370.992 29.6399H369.272Z" fill="white"/>
<path id="Vector_92" d="M343.679 30.04C339.119 30.04 336.119 28.12 335.199 26.72L336.919 22.6L337.439 22.64C338.319 26.48 340.759 29.04 343.679 29.04C345.959 29.04 347.519 27.52 347.519 25.32C347.519 23.44 346.479 22.04 344.159 21.24L341.159 20.24C338.679 19.44 335.959 17.92 335.959 14.32C335.959 10.84 339.079 8.47998 343.319 8.47998C346.159 8.47998 348.999 9.63998 350.559 11.2L349.279 14.92L348.759 14.88C348.119 11.6 345.919 9.47998 343.319 9.47998C341.279 9.47998 339.799 10.72 339.799 12.6C339.799 14.2 340.719 15.2 342.999 16L346.119 17C349.159 18 351.799 19.68 351.799 23.52C351.799 27.12 348.439 30.04 343.679 30.04Z" fill="white"/>
<path id="Vector_93" d="M320.127 30.04C316.327 30.04 313.767 27.44 313.767 23.08V12.16L310.967 11.2V10.68L318.407 8.47998V23.12C318.407 25.92 319.847 27.12 321.887 27.12C324.047 27.12 326.047 25.44 326.607 22.4V12.2L323.807 11.2V10.68L331.247 8.47998V27.68L334.047 29.12V29.64H326.607V24.72C325.607 27.88 323.087 30.04 320.127 30.04Z" fill="white"/>
<path id="Vector_94" d="M299.237 30.04C293.237 30.04 288.917 25.44 288.917 19.24C288.917 13.08 293.237 8.47998 299.237 8.47998C305.237 8.47998 309.597 13.08 309.597 19.24C309.597 25.44 305.237 30.04 299.237 30.04ZM299.237 29.04C302.437 29.04 304.757 24.96 304.757 19.24C304.757 13.48 302.397 9.47998 299.237 9.47998C296.077 9.47998 293.797 13.52 293.797 19.24C293.797 25 296.077 29.04 299.237 29.04Z" fill="white"/>
<path id="Vector_95" d="M284.745 27.6798L287.545 29.1198V29.6398H277.305V29.1198L280.105 27.6798V12.1598L277.305 11.1998V10.6798L284.745 8.47977V27.6798ZM282.305 6.15977C280.705 6.15977 279.385 4.87978 279.385 3.31978C279.385 1.75978 280.705 0.519775 282.305 0.519775C283.945 0.519775 285.305 1.75978 285.305 3.31978C285.305 4.87978 283.945 6.15977 282.305 6.15977Z" fill="white"/>
<path id="Vector_96" d="M261.719 29.64V29.12L264.519 27.68V12.16L261.719 11.2V10.68L269.159 8.47998V14.76C269.959 10.92 271.759 8.47998 274.919 8.47998C275.399 8.47998 275.959 8.51999 276.479 8.67999L275.799 13.24C272.239 11.56 269.839 14.08 269.159 16.76V27.64L272.999 29.12V29.64H261.719Z" fill="white"/>
<path id="Vector_97" d="M246.807 30.04C243.007 30.04 240.447 27.44 240.447 23.08V12.16L237.647 11.2V10.68L245.087 8.47998V23.12C245.087 25.92 246.527 27.12 248.567 27.12C250.727 27.12 252.727 25.44 253.287 22.4V12.2L250.487 11.2V10.68L257.927 8.47998V27.68L260.727 29.12V29.64H253.287V24.72C252.287 27.88 249.767 30.04 246.807 30.04Z" fill="white"/>
<path id="Vector_98" d="M227.348 29.6399V29.1199L230.148 27.7999L225.908 21.1599L221.348 27.7999L224.148 29.1199V29.6399H216.108V29.1199L219.388 27.6799L225.348 20.2799L219.348 10.9199L216.548 9.39988V8.87988H227.428V9.39988L224.628 10.7999L228.268 16.4799L232.428 10.7999L229.628 9.39988V8.87988H237.708V9.39988L234.428 10.9199L228.868 17.3999L235.468 27.6799L238.268 29.1199V29.6399H227.348Z" fill="white"/>
<path id="Vector_99" d="M202.237 30.04C198.437 30.04 195.877 27.44 195.877 23.08V12.16L193.077 11.2V10.68L200.517 8.47998V23.12C200.517 25.92 201.957 27.12 203.997 27.12C206.157 27.12 208.157 25.44 208.717 22.4V12.2L205.917 11.2V10.68L213.357 8.47998V27.68L216.157 29.12V29.64H208.717V24.72C207.717 27.88 205.197 30.04 202.237 30.04Z" fill="white"/>
<path id="Vector_100" d="M189.662 27.68L192.462 29.12V29.64H182.222V29.12L185.022 27.68V3.68L182.222 2.72V2.2L189.662 0V27.68Z" fill="white"/>
<path id="Vector_101" d="M158.485 18.04C158.485 23.64 161.645 26.88 165.485 26.88C168.605 26.88 170.965 24.68 172.165 21.56L172.685 21.68C171.925 26.64 168.605 30.04 163.845 30.04C157.165 30.04 153.605 24.72 153.605 19.24C153.605 13.8 156.765 8.47998 163.285 8.47998C168.965 8.47998 172.525 12 172.445 17.84H158.485C158.485 17.92 158.485 17.96 158.485 18.04ZM158.525 16.84H167.685C167.485 13.08 166.085 9.47998 163.285 9.47998C160.405 9.47998 158.805 13.12 158.525 16.84Z" fill="white"/>
<path id="Vector_102" d="M129.336 29.64V29.12L132.136 27.68V12.16L129.336 11.2V10.68L136.776 8.47998V13.76C137.776 10.64 140.216 8.47998 143.256 8.47998C147.056 8.47998 149.616 11.08 149.616 15.44V27.68L152.416 29.12V29.64H142.176V29.12L144.976 27.68V15.4C144.976 12.6 143.536 11.36 141.496 11.36C139.336 11.36 137.336 13.08 136.776 16.12V27.68L139.576 29.12V29.64H129.336Z" fill="white"/>
<path id="Vector_103" d="M125.409 27.6798L128.209 29.1198V29.6398H117.969V29.1198L120.769 27.6798V12.1598L117.969 11.1998V10.6798L125.409 8.47977V27.6798ZM122.969 6.15977C121.369 6.15977 120.049 4.87978 120.049 3.31978C120.049 1.75978 121.369 0.519775 122.969 0.519775C124.609 0.519775 125.969 1.75978 125.969 3.31978C125.969 4.87978 124.609 6.15977 122.969 6.15977Z" fill="white"/>
<path id="Vector_104" d="M103.444 29.64V29.12L106.244 27.68V10.36H102.684V9.84L106.244 8.92V7C106.244 2.44 109.804 0 113.764 0C115.724 0 117.724 0.639997 119.084 1.84L117.764 5.6L117.244 5.52C116.684 2.6 115.324 0.919998 113.764 0.919998C112.244 0.919998 110.884 2.24 110.884 5.16V8.56L115.844 8.24L116.124 10.36H110.884V27.64L114.724 29.12V29.64H103.444Z" fill="white"/>
<path id="Vector_105" d="M59.6884 29.64V29.12L62.4484 27.68V12.16L59.6484 11.2V10.68L67.0884 8.47998V13.76C68.0484 10.68 70.3284 8.47998 73.2084 8.47998C76.2884 8.47998 78.5284 10.36 79.0884 13.68C80.2884 10.44 82.6884 8.47998 85.3284 8.47998C88.9684 8.47998 91.4484 11.08 91.4484 15.44V27.68L94.1684 29.12V29.64H84.2484V29.12L86.7684 27.68V15.4C86.7684 12.6 85.4484 11.36 83.5284 11.36C81.3684 11.36 79.5684 13.16 79.2484 16.28V27.68L81.7684 29.12V29.64H72.0884V29.12L74.6084 27.68V15.4C74.6084 12.6 73.2884 11.36 71.3684 11.36C69.2884 11.36 67.4084 13.16 67.0884 16.28V27.68L69.6084 29.12V29.64H59.6884Z" fill="white"/>
<path id="Vector_106" d="M47.6359 30.04C41.6359 30.04 37.3159 25.44 37.3159 19.24C37.3159 13.08 41.6359 8.47998 47.6359 8.47998C53.6359 8.47998 57.9959 13.08 57.9959 19.24C57.9959 25.44 53.6359 30.04 47.6359 30.04ZM47.6359 29.04C50.8359 29.04 53.1559 24.96 53.1559 19.24C53.1559 13.48 50.7959 9.47998 47.6359 9.47998C44.4759 9.47998 42.1959 13.52 42.1959 19.24C42.1959 25 44.4759 29.04 47.6359 29.04Z" fill="white"/>
<path id="Vector_107" d="M21.9922 29.64V29.12L24.7922 27.68V12.16L21.9922 11.2V10.68L29.4322 8.47998V14.76C30.2322 10.92 32.0322 8.47998 35.1922 8.47998C35.6722 8.47998 36.2322 8.51999 36.7522 8.67999L36.0722 13.24C32.5122 11.56 30.1122 14.08 29.4322 16.76V27.64L33.2722 29.12V29.64H21.9922Z" fill="white"/>
<path id="Vector_108" d="M0.276245 29.6398V29.1198L3.87625 27.2398V3.19981L0.276245 1.31981V0.799805H21.3162L22.4762 7.67981H21.9562L18.7962 2.63981L8.83625 1.91981V13.8798L15.7162 13.5598L17.6362 9.1198H18.1562V19.8398H17.6362L15.7162 15.3598L8.83625 15.0398V27.1598L13.6362 29.1198V29.6398H0.276245Z" fill="white"/>
</g>
</svg>
