<svg xmlns="http://www.w3.org/2000/svg" viewBox="63.600 26.419 92.800 77.161">
<path id="path3844" d="M90.1398 97.2693C87.1673 97.2693 86.3087 94.2997 86.3087 92.1431C86.3087 89.9208 87.2129 86.9855 90.1968 86.9855C93.155 86.9855 94.0165 89.9751 94.0023 92.0775C94.0023 93.0131 93.7513 97.2693 90.1398 97.2693ZM90.1968 86.0241C86.7251 86.0241 85.1476 88.911 85.1476 92.1345C85.1476 94.1884 85.7838 95.7203 86.6053 96.6788C87.5667 97.8142 88.7505 98.2592 90.1968 98.2592C91.1525 98.2592 92.5617 98.0852 93.6999 96.7444C94.6441 95.629 95.1776 93.8347 95.1947 92.0632C95.2033 89.433 94.0679 86.0241 90.1968 86.0241ZM78.3012 91.5126H71.0983V86.3151H70V97.9739H71.0983V92.4825H78.3012V97.9739H79.4024V86.3151H78.3012V91.5126ZM147.313 91.6952C146.951 91.564 145.285 91.1332 144.954 91.0362C144.298 90.8337 142.994 90.4201 142.994 88.9994C142.994 87.4533 144.477 86.9227 145.73 86.9227C146.739 86.9227 147.675 87.2821 148.254 88.0894C148.511 88.4432 148.645 88.8368 148.745 89.1364L149.769 88.5715C149.512 87.9268 148.745 86.0184 145.764 86.0184C143.949 86.0184 141.93 86.7572 141.93 89.0508C141.93 91.2159 143.79 91.8207 145.433 92.2543C146.959 92.648 147.641 92.8163 148.174 93.2613C148.488 93.4981 148.882 93.9859 148.882 94.8274C148.882 96.0569 147.892 97.2978 145.65 97.2978C144.449 97.2978 143.242 96.8813 142.717 95.8002C142.5 95.3894 142.455 94.9044 142.438 94.4452L141.331 95.0271C141.53 96.0969 142.03 96.9498 142.911 97.546C143.522 97.9425 144.414 98.2592 145.65 98.2592C148.622 98.2592 150 96.4078 150 94.7732C150 92.5653 147.943 91.8892 147.313 91.6952ZM115.825 92.5111H121.724V91.487H115.825V87.3449H122.341V86.3151H114.724V97.9739H122.757V96.9441H115.825V92.5111ZM135.651 33.1586L128.408 33.1757L119.237 54.565L108.428 31.7408L97.7222 54.565L88.7391 33.1586H81.4763L97.6137 70.4999L108.462 46.9997L119.151 70.577L135.651 33.1586ZM99.8046 87.2821H103.482V97.9739H104.58V87.2821H108.268V86.3151H99.8046V87.2821ZM130.862 86.3151H129.729V97.9739H137.3V96.9441H130.862V86.3151Z" fill="black"/>
</svg>
